<svg width="38" height="38" viewBox="0 0 38 38" fill="none" xmlns="http://www.w3.org/2000/svg">
<path d="M37.036 18.518C37.036 14.8555 35.9499 11.2752 33.9152 8.22996C31.8804 5.18469 28.9883 2.81119 25.6045 1.40961C22.2208 0.00802362 18.4975 -0.358695 14.9053 0.355826C11.3132 1.07035 8.01359 2.83402 5.4238 5.4238C2.83402 8.01359 1.07035 11.3132 0.355826 14.9053C-0.358695 18.4975 0.00802362 22.2208 1.40961 25.6045C2.81119 28.9883 5.18469 31.8804 8.22996 33.9152C11.2752 35.9499 14.8555 37.036 18.518 37.036C23.4293 37.036 28.1394 35.085 31.6122 31.6122C35.085 28.1394 37.036 23.4293 37.036 18.518V18.518ZM1.68401 18.518C1.68421 15.1886 2.67167 11.934 4.52153 9.16581C6.3714 6.39761 9.00058 4.24011 12.0766 2.96613C15.1526 1.69216 18.5374 1.35893 21.8028 2.00859C25.0682 2.65825 28.0676 4.26161 30.4218 6.61593C32.776 8.97024 34.3792 11.9698 35.0286 15.2352C35.6781 18.5007 35.3447 21.8854 34.0705 24.9613C32.7963 28.0373 30.6387 30.6663 27.8704 32.516C25.1021 34.3657 21.8474 35.353 18.518 35.353C16.3072 35.3531 14.118 34.9178 12.0754 34.0718C10.0328 33.2258 8.17687 31.9857 6.61357 30.4224C5.05027 28.8591 3.81022 27.0032 2.96423 24.9606C2.11824 22.9181 1.68288 20.7288 1.68301 18.518H1.68401Z" fill="white"/>
<path d="M25.723 10H12.236C11.6432 10.0008 11.075 10.2366 10.6558 10.6558C10.2366 11.075 10.0008 11.6432 10 12.236V25.89C10.0008 26.4828 10.2366 27.0511 10.6558 27.4702C11.075 27.8894 11.6432 28.1252 12.236 28.126H25.723C26.3158 28.1252 26.8841 27.8894 27.3032 27.4702C27.7224 27.0511 27.9582 26.4828 27.959 25.89V12.236C27.9582 11.6432 27.7224 11.075 27.3032 10.6558C26.8841 10.2366 26.3158 10.0008 25.723 10V10ZM25.841 25.89C25.841 25.9213 25.8286 25.9513 25.8064 25.9734C25.7843 25.9956 25.7543 26.008 25.723 26.008H12.236C12.2047 26.008 12.1747 25.9956 12.1526 25.9734C12.1304 25.9513 12.118 25.9213 12.118 25.89V12.236C12.118 12.2047 12.1304 12.1747 12.1526 12.1526C12.1747 12.1304 12.2047 12.118 12.236 12.118H25.723C25.7543 12.118 25.7843 12.1304 25.8064 12.1526C25.8286 12.1747 25.841 12.2047 25.841 12.236V25.89Z" fill="white"/>
<path d="M24.496 13.706H22.07V15.932H24.496V13.706Z" fill="white"/>
<path d="M18.98 22.352C20.3011 22.352 21.372 21.2811 21.372 19.96C21.372 18.6389 20.3011 17.568 18.98 17.568C17.6589 17.568 16.588 18.6389 16.588 19.96C16.588 21.2811 17.6589 22.352 18.98 22.352Z" fill="white"/>
<path d="M22.796 19.949C22.8042 20.4553 22.7116 20.9581 22.5235 21.4282C22.3354 21.8983 22.0557 22.3263 21.7006 22.6872C21.3454 23.0481 20.9221 23.3347 20.4551 23.5304C19.9881 23.726 19.4868 23.8268 18.9805 23.8268C18.4742 23.8268 17.9729 23.726 17.5059 23.5304C17.0389 23.3347 16.6155 23.0481 16.2604 22.6872C15.9053 22.3263 15.6256 21.8983 15.4375 21.4282C15.2494 20.9581 15.1568 20.4553 15.165 19.949L15.17 18.249H13.464V24.577H24.497V18.249H22.807L22.796 19.949Z" fill="white"/>
</svg>
